<?xml version="1.0" encoding="UTF-8"?>
<svg id="Layer_2" data-name="Layer 2" xmlns="http://www.w3.org/2000/svg" viewBox="0 0 553.01 356.44">
  <defs>
    <style>
      .cls-1 {
        fill: #fff;
      }
    </style>
  </defs>
  <g id="Layer_1-2" data-name="Layer 1">
    <g>
      <path class="cls-1" d="M551.51,220.34c-2.52-3-5.18-5.89-7.78-8.82-.2-.63-.4-1.26-.6-1.9,0,0,0-.03,0-.03-.23-3.52,.16-7.03,1.22-10.33,2.24-6.97,2.04-14.05,1.72-21.19-.35-7.8-2.86-14.49-9.1-19.64-4.35-3.59-8.37-7.66-11.53-12.33-12.39-18.31-30.8-26.95-51.27-32.39-1.88-.74-3.79-1.37-5.86-1.16-1.85-1.2-3.99-.94-6.03-1.2-3.26-1.14-6.6-1.81-10.06-1.77-.62-.1-1.23-.21-1.85-.31-1.64-.89-3.41-.74-5.18-.62-3.09-.53-6.16-1.18-9.27-1.56-15.57-1.94-31.08-4.3-46.74-5.49-.58-.1-1.17-.2-1.75-.3-.48-.21-.95-.42-1.43-.63-5.05-3.89-10.05-7.85-15.17-11.66-15.21-11.33-32.17-20.04-47.17-31.69-5.61-4.36-12.16-6.71-19.25-7.53-13.23-1.53-26.49-2.7-39.81-3.15-28.99-.97-57.95,.16-86.91,.99-14.33,.41-28.55,1.52-42.5,5.08-15.46,3.95-30.58,8.82-44.9,15.97-1.54,.56-3.25,.85-4.57,1.73-3.59,2.4-5.55,1.16-7.64-2.24-5.02-8.18-9.79-16.44-12.9-25.56-1.35-13.58,4.06-18.43,17.68-15.73,2.42,.48,4.85,1.14,7.12,2.1,5.77,2.45,11.45,5.11,17.16,7.68l8.46,5.09c-1.79-3.03-4.69-4.38-7.4-5.99-6-3.85-11.9-7.86-18.01-11.53C74.23,14.66,58.15,5.24,39.73,1.1c-6.73-1.52-13.98-2.32-19.14,3.52-4.79,5.42-2.99,12.19-.89,18.08,4.94,13.83,12.35,26.4,21.38,37.99,.44,.63,.88,1.25,1.32,1.88,2.01,3.65,4.59,6.88,7.29,10.03,.26,.31,.53,.63,.79,.94,.63,.84,1.25,1.68,1.88,2.52,.03,.25,.17,.43,.4,.54,1.53,2.12,3.06,4.25,4.78,6.63-6.82,3.54-14.12,4.74-21.28,6.39-1.38-.23-2.72-.15-4.02,.43-3.75-.36-6.38,1.19-7.92,4.61-1.28,2.83-3.65,4.43-6.53,4.83-4.49,.63-6.38,3.31-6.29,7.42,.12,5.13-1.84,9.31-4.85,13.25C1.85,126.47-.15,133.6,0,141.6c.24,12.35,1.54,24.56,3.42,36.74,.49,3.14,1.17,6.59,4.28,8.05,4.85,2.28,5.84,6.51,7.37,11,4.44,12.99,10.6,25.26,26.27,26.61,12.69,1.09,25.96,1.65,34.86-10.7,.25-.26,.49-.52,.74-.78,0,0,.26-.03,.26-.03l-.02-.26h0c.2-.24,.41-.47,.61-.7,0,0,.33-.03,.33-.03l.08-.32c1.35,.05,2.7,.09,4.05,.14,.97,.1,1.95,.19,2.92,.29,.66,.18,1.33,.35,1.99,.53,1.07,.13,2.14,.26,3.21,.4,.56,.11,1.11,.21,1.67,.32,3.26,1.05,6.56,1.85,10.02,1.8,.71,.19,1.41,.38,2.12,.56,.69,.08,1.37,.16,2.06,.24,14.16,3.42,28.37,6.6,42.85,8.43,1.51,1.31,3.33,.57,5.01,.74,.56,.67,1.27,.75,2.07,.55,1.33,.14,2.66,.29,3.99,.43,.64,.11,1.28,.23,1.92,.34,1.32,.82,2.77,.72,4.23,.61,1.87,.98,3.87,1.17,5.94,.99,7.12,2.35,14.6,2.71,21.91,3.98,8.95,1.55,17.51,3,24.6,10,7.25,7.16,15.45,13.45,23.93,19.25,12.47,10.74,25.79,20.39,39.14,29.98,30.52,21.91,61.54,43.07,96.19,58.15,8.39,3.65,17,6.7,26.22,7.45,11.45,.94,17.2-5.51,15.23-16.76-.75-4.29-1.98-8.38-3.86-12.31-10.29-21.52-25.31-39.68-40.78-57.53-.82-1.34-1.68-2.6-4.17-2.18,1.35,1.29,2.33,2.23,3.32,3.17,2.29,3.64,4.68,7.22,6.84,10.94,3.6,6.17,7.29,12.37,7.52,19.81,.24,7.83-4.2,12.19-12.02,11.71-4.82-.3-9.54-1.31-14.1-2.96-21.1-7.62-39.96-19.43-58.68-31.48-17.2-11.06-33.41-23.5-49.92-35.53-1.24-1.9,.12-1.78,1.3-1.59,4.06,.66,8.12,1.38,12.18,2.08,1.04,.18,1.68,.82,2.31,1.67,2.04,2.73,4.19,5.37,6.3,8.04,0,0,0,0,0,0,.55,.71,1.09,1.42,1.64,2.12,0,0,.1,.21,.1,.21,.64,.75,1.28,1.51,1.93,2.26,0,0,.34,.35,.34,.35,1.26,1.64,2.57,3.22,4.49,4.13,3.93,4.01,8.67,6.91,14.07,8.01,14.8,3.01,29.08,.79,42.69-5.6,2.05-.96,4.45-2.41,5.41-4.28,4.15-8.11,11.15-8.66,18.84-7.92,.66,.06,1.33,0,2,0,25.65-.09,51.3-.18,76.95-.28,2,0,3.99-.02,5.99-.02,5.85,.66,10.97-1.82,16.22-3.77,10.39-1.41,20.69-3.29,30.77-6.2,6.83-1.02,13.41-3.07,20-5.03,.73-.2,1.46-.41,2.18-.61,.27-.08,.53-.16,.8-.24,3.84-1.85,8.52-1.25,12.01-4.13,3.76,.39,6.9-1.52,10.22-2.78,2.44-.69,4.94-1.22,7.32-2.09,3.65-1.34,4.36-4.21,1.83-7.23Zm-412.25-60.15c-2.12,1.11-4.26,2.19-6.4,3.27,2.14-1.08,4.28-2.16,6.4-3.27Zm8.67-8.6c3.73-3.32,5.7,.59,8.16,2.34-1.3,3.15-4.62,4.32-6.7,6.74-1.23,1.43-2.45-.67-3.74-.93-3.14-3.79-.08-6.04,2.28-8.15Zm286.45,20.37c.41-.18,.73-.4,.98-.65,.25-.25,.42-.52,.54-.81-.12,.29-.3,.57-.54,.81-.25,.25-.57,.46-.98,.65,.52,2.03,5.78,1.65,2.79,5.47-17.09-.85-34.13-2.24-51.03-5.01-6.36-1.04-11.99-3.47-16.98-7.68-6.15-5.19-12.65-9.96-18.65-16.65,7.76-1.05,14.44-.3,21.03,1.06,22.05,4.55,43.05,12.03,62.84,22.81Zm-57.24-70.02c-9.58,2.56-18.4,2.79-27.15,3.47-2.35,.18-3.65-1.21-4.18-3.42-2.15-8.97-4.31-17.93-6.64-27.62,13.04,8.82,26.01,16.65,37.96,27.57ZM208.61,62.2c14.42-2.73,28.98-3.94,43.61-4.47,7.81-.28,15.63-.05,23.44-.05,11.65-.8,23.27-.59,34.87,.68,3.36,.37,5.61,1.79,7.34,4.39,8.52,12.84,14.71,26.7,18.13,41.76,.52,2.29,0,3.47-2.48,3.58-1.32,.06-2.64,.48-3.96,.48-26.32-.11-52.44,3.38-78.7,4.47-6.3,.26-10.63-1.45-14.46-6.52-8.83-11.66-18.14-22.94-27.24-34.4-1.13-1.43-2.28-2.89-3.12-4.49-1.48-2.79-1.55-4.65,2.55-5.43Zm-85.13,12.63c.56-5.74,3.39-7.56,8.58-8.54,10.53-1.99,21.07-3.13,31.76-2.53,12.39,.7,23.31,5.01,32.35,13.7,10.49,10.09,18.52,22.02,26.83,35.08-7.33,.03-13.64-.82-19.88-2.02-2.18-.42-1.76-2.53-1.83-4.14-.23-5.41-2.11-10.03-6.3-13.59-.5-.43-1.01-.87-1.56-1.23-7.26-4.87-29.4-.97-34.38,6.1-.55,.78-1.1,1.81-1.08,2.71,.11,5.49-3.07,4.95-7.11,4.7-8.63-.52-17.09-2.02-25.61-3.21-1.64-.16-3.28-.32-4.92-.48-.71-9.07,2.29-17.69,3.15-26.55Zm-30.12,7.07c4.13-2.06,8.25-4.16,12.41-6.17,4.01-1.93,8.06-3.77,12.55-5.86-.82,10.09-4.12,19.18-5.29,28.65-4.08,1.33-12.94-1-15.57-4.16-1.58-1.89-2.86-4.07-4.64-5.74-2.83-2.65-2.02-4.69,.55-6.74,.26-1.22,.25-2.38,.08-3.5,.17,1.12,.18,2.28-.08,3.5Zm-.54-5.97c.18,.54,.34,1.08,.46,1.63-.12-.55-.28-1.1-.46-1.63-.18-.54-.38-1.07-.59-1.6,.21,.53,.41,1.07,.59,1.6Zm-50.91,88.62c-3.26,5.17-6.48,10.37-9.9,15.44-.98,1.45-1.4,4.71-4.54,2.46-2.54-1.82-4.99-3.86-2.86-7.31,2.34-3.79,5.1-7.33,7.56-11.05,2.16-3.25,5.3-5.84,6.48-9.74h0c7.65-7.94,13.29-17.39,19.55-26.37,2.25-3.23,4.21-1.54,6.23-.44,2.44,1.33,1.7,3.03,.33,4.93-4.07,5.66-8.03,11.4-11.91,17.19-.66,.98-2.33,2.02-1.31,3.34,.49,.64,2.15,.64,3.24,.53,8.86-.94,16.77-4.16,22.96-10.67,5.56-5.86,4.63-13.05-2.35-17.25-9.81-5.92-26.24-6-34.09,6.43-3.17,5.01-4.8,10.5-6.24,16.13-9.03,.21-13.74-6.54-10.23-14.54,1.81-4.13,4.56-7.57,7.46-10.92,13.68-9.03,28.23-9.62,42.67-2.88,12.88,6.01,14.59,18.35,4.81,28.57-9.12,9.54-20.58,13.65-33.52,14.24-2.23-1.11-3.32,.27-4.36,1.93Zm54.99,11.43c-1.72,1.57-3.39,.31-4.81-.97-1.78-1.61-2.51-3.51-1.29-5.77,.91-1.68,1.94-3.29,2.86-4.86-1.57-1.36-2.27-.48-2.93,.21-4.95,5.14-9.93,10.26-14.8,15.47-1.54,1.65-2.47,4.21-5.4,1.76-2.43-2.03-3.79-4.04-1.74-7.15,2.89-4.37,5.6-8.85,8.47-13.23,.55-.84,1.24-1.55,1.17-2.63,1.13-.82,2.7-1.19,2.96-2.89,2.49-1.55,2.58-5.35,5.82-6.19q5.78,3.19-.76,12.43c1.88,1.33,2.84-.13,3.98-1.19,2.79-2.59,5.61-5.16,8.92-7.1,2.6-1.53,5.05-1.33,7.24,.78,2.5,2.41,.84,4.48-.65,6.53-2.14,2.94-4.28,5.89-6.42,8.83h0c-.27,.46-1.31,.77-.56,1.43,.49,.43,1.24,.19,1.6-.53,1.73,3.77-2.15,3.69-3.66,5.07Zm5.94,2.17c3.2-7.99,8.53-14.61,14.14-20.95,2.87-3.25,10.83,.31,12.67,5.45h0c.04,.74,.09,1.48,.13,2.23,0,0-.08,.19-.08,.19,0,0,0,0,0,0-.75,2.84-1.49,5.69-2.24,8.53-3.17,5.49-6.49,10.85-11.87,14.54-3.88,2.66-7.98,3.72-11.95,.51-3.75-3.04-2.26-6.91-.82-10.51Zm5.42,27.46c-6.01-3.16-7.81-6.52-6-11.27,.63,.17,1.26,.35,1.9,.52,2.44,6.48,4.9,7.28,10.49,2.77,6.66-5.38,11.35-12.46,15.76-19.7,4.13-5.41,7.49-11.31,10.92-17.16,1.26,.4,2.53,.79,3.79,1.19,1.47,1.56,2.87,2.8,1.17,5.4-6.19,9.49-11.13,19.77-17.96,28.88-5.04,6.72-11.43,10.44-20.08,9.37Zm35.59-23.52c3.23-4.67,6.03-9.99,11.42-13.12,2.33-1.35,4.92-1.55,7.14-2.87,3.33-.62,6.49,.18,9.63,1.14,3.63,2.12,3.8,5.19,2.19,8.58-1.43,3.02-3.37,5.7-5.83,8.01-6.32,5.96-9.16,6.13-15.87,.75-.41,.92-.93,1.77-1.18,2.7-.73,2.66-2.52,5.73,.12,7.91,2.81,2.33,6.19,.9,8.84-.79,2.88-1.83,5.34-4.32,8.09-6.62,1.5,1.92,.57,3.47-.46,4.95-3.2,4.59-11.39,7.72-16.86,6.49-7.85-1.77-11.92-10.35-7.22-17.14Zm39.98,28.22c-.28-.12-.56-.24-.83-.36,.28,.12,.56,.24,.83,.36,0,0,0,0,0,0Zm13-30.35c.44-.66,.8-1.39,1.72-3.01-11.14,2.16-14.48,10.6-18.35,18.51-.18,.37-.37,.73-.55,1.1-.56,1.82-2.37,3.94-.47,5.45,1.85,1.47,3.63-.71,5.26-1.62,1.7-.95,3.18-2.29,4.75-3.46h0c1.01-.78,2.02-1.55,3.03-2.33-.1,0-.19-.02-.29-.03-.2-.03-.39-.07-.59-.11,.2,.04,.4,.08,.59,.11,.1,.01,.19,.02,.29,.03,2.92-.15,2.5,1.36,1.39,2.99-3.58,5.25-12.45,8.12-18.31,6-.35-.35-.7-.7-1.05-1.05-.21-.3-.42-.6-.63-.9-2.34-9.62,5.65-25.59,14.88-29.42,1.45-.6,3.28-.76,4.84-.51,3.31,.53,6.39,2.88,9.98,.37,.91-.64,2.12,1.21,2.83,2.26,.77,1.15,.25,2.18-.6,3.11-1.21,1.33-2.39,2.69-3.59,4.04-.53,.39-1.02,.84-1.59,1.16-1.02,.56-1.59,2.54-3.2,1.31-1.43-1.1-1.32-2.54-.35-3.99Zm-8.09,14.39c.17-.09,.35-.14,.53-.17-.18,.03-.36,.08-.53,.17Zm33.28-11.55c-.02,.25-.05,.48-.11,.67,.06-.19,.09-.42,.11-.67,.02-.25,.03-.51,.04-.77-.01,.26-.02,.52-.04,.77Zm.1-1.51c-.02,.11-.03,.23-.04,.35,0-.12,.02-.24,.04-.35-1.17,.04-2.67-.76-3.06,1.22-5.25,5.8-9.78,12.1-13.27,19.13-1.6,3.22,.31,2.63,2.75,1.95-1.67,3.6-4.16,6.31-7.39,5.18-3.47-1.21-4.05-4.93-2.81-8.52,1.75-5.09,5.45-9.06,7.89-13.75,.87-.36,1.09-1.15,1.29-1.95,.24-.32,.47-.64,.71-.96,.27-.33,.53-.66,.8-.99,2.79-2.18,2.94-4.18-.4-5.94-.03-1.75,.89-2.61,2.48-1.95,3.74,1.56,5.41-1.08,6.45-3.55,1.75-4.16,4.37-2.44,6.75-1.39,3.51,1.55,.95,3.56-.13,5-1.51,2.01-1.22,2.65,1.19,3.09,1.16,.21,.73,1.65,.81,2.59-1.28,.62-2.98-.75-4.06,.84Zm25.28,48.48c-2.2-.17-4.38-.5-5.48-2.79-.79-1.63-2.16-3.52-1.23-5.11,1.06-1.81,3.01-.11,4.48,.16,4.77,.88,9.49,.71,14.84,.06-6.53-2.99-3.86-6.87-1.6-10.41,7.98-12.54,17.66-23.74,27.7-34.64,2.84-3.09,5.96-1.53,8.47,.37,2.33,1.77-.04,3.15-1.22,4.34-7.96,8.05-15.84,16.17-22.24,25.56-2.99,4.39-5.78,8.91-8.19,14.55,16.69-4.21,31.29-10.84,41.2-24.83,6.73-9.49,3.05-19.03-8.04-22.73-14.95-5-26.91,.61-31.65,15.13-.83,2.55-1.85,3.14-3.71,1.73-4.23-3.2-7.95-6.88-8.65-12.56,3.9-10.76,13.03-13.26,22.82-13.4,9.5-.14,19.16,.42,27.36,6.49,4.03,2.98,7.3,6.62,9.86,10.91,1.54,.12,3.05,.37,4.54,.69-1.49-.32-3-.57-4.54-.69,3.91,17.11,.83,24.4-14.38,34.03-15.39,9.74-32.05,14.59-50.35,13.15Zm41.08-1.09c-.19-.04-.38-.06-.58-.07,.2,0,.39,.03,.58,.07Zm31.53,25.8c-11.34,10.56-27.74,6.54-36.86-5.53-1.23-1.63-.06-2.31,.63-3.35,2.17-3.31,4.31-6.64,6.47-9.96,.4-.53,.81-1.06,1.21-1.59,.26-.19,.51-.38,.77-.57-.07-.54-.19-1.04-.35-1.5-.31-.92-.78-1.67-1.37-2.23-.29-.28-.61-.51-.95-.69,.34,.18,.66,.41,.95,.69,.58,.56,1.05,1.31,1.37,2.23,.16,.46,.27,.96,.35,1.5,1.77,.62,1.01,1.78,.52,2.78-1.16,2.37-2.17,4.86-3.66,7.01-3.04,4.4-2.42,7.53,2.66,9.54,5.88,5.3,12.79,4.61,19.76,3.31,3.82-.71,4.69-3.02,3.35-6.59-2.19-5.82-4.19-11.72-5.25-17.98,2.54,5.48,5.16,10.93,7.57,16.46,1.34,3.09,2.49,3.51,4.49,.49,3.23-4.88,6.24-9.8,6.96-15.77,.97-4.55,1.59-9.15,1.43-13.81-.21-6.06-.66-6.34-6.83-4.49-.04,.3-.07,.6-.15,.88,.08-.28,.11-.59,.15-.88-1.05,.15-2.1,.3-3.15,.45-1.91,.16-3.82,.32-5.73,.48,.12-.22,.14-.45,.06-.69,2.83-1.35,5.55-3.06,8.52-3.96,5.05-1.53,5.73-4.07,3.71-8.77-1.99-4.63-3.86-9.32-6.02-13.89,6.96,7.13,9.34,16.3,11.56,25.55,.12,2.33,.23,4.67,.35,7,0,1.33,0,2.66,0,3.99-.61,11.45-3.8,21.8-12.5,29.9Z"/>
      <path class="cls-1" d="M179.63,196.54c.18-.37,.37-.73,.55-1.1-.48,.22-.81,.51-.55,1.1Z"/>
      <path class="cls-1" d="M112.05,186.76c7.28-6.04,11.79-13.8,13.92-22.43,.31-2.12,.01-3.58-1.43-4.44-1-.59-1.43,.5-1.88,1.09-5.48,7.1-10.85,14.28-14.81,22.39-.66,1.35-1.52,3.05-.29,4.14,1.42,1.27,3.24,.29,4.49-.75Z"/>
      <path class="cls-1" d="M171.68,170.66c-1.46-2.03-3.84-1.27-5.89-.36-5.37,2.37-8.9,6.55-12.2,12.4,7.1,.05,11.86-3.03,16.12-7.06,1.36-1.29,3.45-2.92,1.97-4.97Z"/>
    </g>
  </g>
</svg>